<svg xmlns="http://www.w3.org/2000/svg" xmlns:xlink="http://www.w3.org/1999/xlink" width="140" zoomAndPan="magnify" viewBox="0 0 104.88 37.5" height="50" preserveAspectRatio="xMidYMid meet" version="1.0"><defs><g/><clipPath id="35dc4d65e4"><path d="M 1.46875 0 L 38.476562 0 L 38.476562 37.007812 L 1.46875 37.007812 Z M 1.46875 0 " clip-rule="nonzero"/></clipPath></defs><g clip-path="url(#35dc4d65e4)"><path fill="#6440fb" d="M 17.753906 0 L 22.191406 0 C 22.726562 0 23.257812 0.0273438 23.789062 0.078125 C 24.320312 0.128906 24.847656 0.207031 25.371094 0.3125 C 25.890625 0.417969 26.410156 0.546875 26.917969 0.699219 C 27.429688 0.855469 27.929688 1.035156 28.425781 1.238281 C 28.917969 1.445312 29.398438 1.671875 29.867188 1.921875 C 30.339844 2.175781 30.796875 2.449219 31.238281 2.746094 C 31.683594 3.039062 32.109375 3.359375 32.523438 3.695312 C 32.933594 4.035156 33.328125 4.390625 33.707031 4.769531 C 34.082031 5.144531 34.441406 5.539062 34.78125 5.953125 C 35.117188 6.367188 35.433594 6.792969 35.730469 7.238281 C 36.027344 7.679688 36.300781 8.136719 36.554688 8.605469 C 36.804688 9.078125 37.03125 9.558594 37.234375 10.050781 C 37.441406 10.542969 37.621094 11.046875 37.773438 11.554688 C 37.929688 12.066406 38.058594 12.582031 38.164062 13.105469 C 38.265625 13.628906 38.34375 14.15625 38.398438 14.6875 C 38.449219 15.21875 38.476562 15.75 38.476562 16.28125 L 38.476562 20.722656 C 38.476562 21.257812 38.449219 21.789062 38.398438 22.320312 C 38.34375 22.851562 38.265625 23.378906 38.164062 23.898438 C 38.058594 24.421875 37.929688 24.941406 37.773438 25.449219 C 37.621094 25.960938 37.441406 26.460938 37.234375 26.953125 C 37.03125 27.449219 36.804688 27.929688 36.554688 28.398438 C 36.300781 28.871094 36.027344 29.328125 35.730469 29.769531 C 35.433594 30.214844 35.117188 30.640625 34.78125 31.054688 C 34.441406 31.464844 34.082031 31.859375 33.707031 32.238281 C 33.328125 32.613281 32.933594 32.972656 32.523438 33.308594 C 32.109375 33.648438 31.683594 33.964844 31.238281 34.261719 C 30.796875 34.558594 30.339844 34.832031 29.867188 35.082031 C 29.398438 35.335938 28.917969 35.5625 28.425781 35.765625 C 27.929688 35.972656 27.429688 36.152344 26.917969 36.304688 C 26.410156 36.460938 25.890625 36.589844 25.371094 36.695312 C 24.847656 36.796875 24.320312 36.875 23.789062 36.929688 C 23.257812 36.980469 22.726562 37.007812 22.191406 37.007812 L 17.753906 37.007812 C 17.21875 37.007812 16.6875 36.980469 16.15625 36.929688 C 15.625 36.875 15.097656 36.796875 14.574219 36.695312 C 14.050781 36.589844 13.535156 36.460938 13.023438 36.304688 C 12.515625 36.152344 12.011719 35.972656 11.519531 35.765625 C 11.027344 35.5625 10.546875 35.335938 10.078125 35.082031 C 9.605469 34.832031 9.148438 34.558594 8.707031 34.261719 C 8.261719 33.964844 7.835938 33.648438 7.421875 33.308594 C 7.011719 32.972656 6.617188 32.613281 6.238281 32.238281 C 5.859375 31.859375 5.503906 31.464844 5.164062 31.054688 C 4.828125 30.640625 4.507812 30.214844 4.214844 29.769531 C 3.917969 29.328125 3.644531 28.871094 3.390625 28.398438 C 3.140625 27.929688 2.914062 27.449219 2.707031 26.953125 C 2.503906 26.460938 2.324219 25.960938 2.171875 25.449219 C 2.015625 24.941406 1.886719 24.421875 1.78125 23.898438 C 1.679688 23.378906 1.601562 22.851562 1.546875 22.320312 C 1.496094 21.789062 1.46875 21.257812 1.46875 20.722656 L 1.46875 16.28125 C 1.46875 15.75 1.496094 15.21875 1.546875 14.6875 C 1.601562 14.15625 1.679688 13.628906 1.78125 13.105469 C 1.886719 12.582031 2.015625 12.066406 2.171875 11.554688 C 2.324219 11.046875 2.503906 10.542969 2.707031 10.050781 C 2.914062 9.558594 3.140625 9.078125 3.390625 8.605469 C 3.644531 8.136719 3.917969 7.679688 4.214844 7.238281 C 4.507812 6.792969 4.828125 6.367188 5.164062 5.953125 C 5.503906 5.539062 5.859375 5.144531 6.238281 4.769531 C 6.617188 4.390625 7.011719 4.035156 7.421875 3.695312 C 7.835938 3.359375 8.261719 3.039062 8.707031 2.746094 C 9.148438 2.449219 9.605469 2.175781 10.078125 1.921875 C 10.546875 1.671875 11.027344 1.445312 11.519531 1.238281 C 12.011719 1.035156 12.515625 0.855469 13.023438 0.699219 C 13.535156 0.546875 14.050781 0.417969 14.574219 0.3125 C 15.097656 0.207031 15.625 0.128906 16.15625 0.078125 C 16.6875 0.0273438 17.21875 0 17.753906 0 Z M 17.753906 0 " fill-opacity="1" fill-rule="nonzero"/></g><path fill="#ffffff" d="M 11.089844 17.421875 L 12.199219 18.070312 L 12.199219 23.269531 L 13.308594 23.921875 L 14.417969 24.570312 L 15.53125 25.222656 L 16.640625 25.871094 L 17.75 26.523438 L 18.859375 27.171875 L 19.96875 27.824219 L 21.078125 27.171875 L 22.1875 26.523438 L 23.296875 25.871094 L 24.40625 25.222656 L 25.519531 24.570312 L 26.628906 23.921875 L 27.738281 23.269531 L 27.738281 18.070312 L 28.847656 17.421875 L 28.847656 19.773438 C 28.753906 19.832031 28.695312 19.9375 28.695312 20.050781 C 28.695312 20.164062 28.746094 20.253906 28.824219 20.308594 L 28.789062 20.425781 L 28.5625 21.121094 L 29.457031 21.121094 L 29.234375 20.425781 L 29.195312 20.308594 C 29.277344 20.253906 29.328125 20.171875 29.328125 20.050781 C 29.328125 19.925781 29.238281 19.789062 29.113281 19.746094 L 29.113281 17.265625 L 20.242188 12.0625 L 20.507812 11.90625 L 29.390625 17.105469 L 29.964844 16.769531 L 31.074219 16.121094 L 29.964844 15.46875 L 28.855469 14.820312 L 27.746094 14.167969 L 26.632812 13.519531 L 25.523438 12.871094 L 24.414062 12.21875 L 22.195312 10.921875 L 21.085938 10.269531 L 19.972656 9.621094 L 18.863281 10.273438 L 17.753906 10.921875 L 16.640625 11.570312 L 15.53125 12.222656 L 13.3125 13.519531 L 12.203125 14.171875 L 11.09375 14.820312 L 9.980469 15.472656 L 8.871094 16.121094 L 9.980469 16.769531 Z M 18.863281 15.472656 L 19.972656 14.820312 L 21.082031 15.472656 L 22.191406 16.121094 L 21.082031 16.773438 L 18.863281 18.070312 L 18.863281 19.375 L 19.972656 20.023438 L 21.082031 19.375 L 23.300781 18.070312 L 24.410156 17.421875 L 25.523438 16.769531 L 26.285156 16.324219 L 26.632812 16.121094 L 25.6875 15.570312 L 25.523438 15.472656 L 24.410156 14.820312 L 23.300781 14.171875 L 22.195312 13.519531 L 21.085938 12.871094 L 19.972656 12.21875 L 18.863281 12.871094 L 17.753906 13.519531 L 16.644531 14.171875 L 15.53125 14.820312 L 14.421875 15.472656 L 13.3125 16.121094 L 14.421875 16.773438 L 14.421875 21.972656 L 15.53125 22.621094 L 16.644531 23.273438 L 17.753906 23.921875 L 18.863281 24.574219 L 19.972656 25.222656 L 21.082031 24.574219 L 22.191406 23.921875 L 23.300781 23.273438 L 24.410156 22.621094 L 25.523438 21.972656 L 25.523438 19.371094 L 24.410156 20.023438 L 23.300781 20.671875 L 22.191406 21.324219 L 21.082031 21.972656 L 19.972656 22.625 L 17.753906 21.320312 L 16.644531 20.671875 L 16.644531 16.769531 Z M 18.863281 15.472656 " fill-opacity="1" fill-rule="evenodd"/><g fill="#ffffff" fill-opacity="1"><g transform="translate(40.16634, 24.570555)"><g><path d="M 5.34375 0.203125 C 4.394531 0.203125 3.476562 0.078125 2.59375 -0.171875 C 1.71875 -0.429688 1.015625 -0.765625 0.484375 -1.171875 L 1.421875 -3.265625 C 1.929688 -2.890625 2.535156 -2.585938 3.234375 -2.359375 C 3.941406 -2.128906 4.648438 -2.015625 5.359375 -2.015625 C 6.148438 -2.015625 6.734375 -2.128906 7.109375 -2.359375 C 7.484375 -2.597656 7.671875 -2.910156 7.671875 -3.296875 C 7.671875 -3.578125 7.554688 -3.8125 7.328125 -4 C 7.109375 -4.1875 6.820312 -4.335938 6.46875 -4.453125 C 6.125 -4.566406 5.660156 -4.691406 5.078125 -4.828125 C 4.160156 -5.046875 3.410156 -5.265625 2.828125 -5.484375 C 2.253906 -5.703125 1.757812 -6.046875 1.34375 -6.515625 C 0.925781 -6.992188 0.71875 -7.632812 0.71875 -8.4375 C 0.71875 -9.132812 0.90625 -9.765625 1.28125 -10.328125 C 1.65625 -10.890625 2.21875 -11.332031 2.96875 -11.65625 C 3.726562 -11.988281 4.65625 -12.15625 5.75 -12.15625 C 6.519531 -12.15625 7.265625 -12.0625 7.984375 -11.875 C 8.710938 -11.695312 9.351562 -11.4375 9.90625 -11.09375 L 9.046875 -9 C 7.941406 -9.625 6.835938 -9.9375 5.734375 -9.9375 C 4.960938 -9.9375 4.390625 -9.8125 4.015625 -9.5625 C 3.648438 -9.3125 3.46875 -8.984375 3.46875 -8.578125 C 3.46875 -8.160156 3.679688 -7.851562 4.109375 -7.65625 C 4.535156 -7.457031 5.1875 -7.265625 6.0625 -7.078125 C 6.96875 -6.859375 7.710938 -6.640625 8.296875 -6.421875 C 8.878906 -6.203125 9.378906 -5.859375 9.796875 -5.390625 C 10.210938 -4.929688 10.421875 -4.300781 10.421875 -3.5 C 10.421875 -2.8125 10.226562 -2.1875 9.84375 -1.625 C 9.46875 -1.0625 8.894531 -0.613281 8.125 -0.28125 C 7.363281 0.0390625 6.4375 0.203125 5.34375 0.203125 Z M 5.34375 0.203125 "/></g></g></g><g fill="#ffffff" fill-opacity="1"><g transform="translate(51.060024, 24.570555)"><g><path d="M 4.9375 -9.328125 C 6.363281 -9.328125 7.457031 -8.988281 8.21875 -8.3125 C 8.976562 -7.632812 9.359375 -6.613281 9.359375 -5.25 L 9.359375 0 L 6.859375 0 L 6.859375 -1.140625 C 6.359375 -0.285156 5.425781 0.140625 4.0625 0.140625 C 3.351562 0.140625 2.738281 0.0195312 2.21875 -0.21875 C 1.707031 -0.457031 1.3125 -0.785156 1.03125 -1.203125 C 0.757812 -1.628906 0.625 -2.109375 0.625 -2.640625 C 0.625 -3.492188 0.945312 -4.164062 1.59375 -4.65625 C 2.238281 -5.144531 3.234375 -5.390625 4.578125 -5.390625 L 6.6875 -5.390625 C 6.6875 -5.972656 6.507812 -6.421875 6.15625 -6.734375 C 5.8125 -7.046875 5.285156 -7.203125 4.578125 -7.203125 C 4.085938 -7.203125 3.601562 -7.125 3.125 -6.96875 C 2.65625 -6.820312 2.257812 -6.617188 1.9375 -6.359375 L 0.96875 -8.21875 C 1.46875 -8.570312 2.066406 -8.84375 2.765625 -9.03125 C 3.472656 -9.226562 4.195312 -9.328125 4.9375 -9.328125 Z M 4.734375 -1.65625 C 5.179688 -1.65625 5.582031 -1.757812 5.9375 -1.96875 C 6.289062 -2.175781 6.539062 -2.488281 6.6875 -2.90625 L 6.6875 -3.84375 L 4.875 -3.84375 C 3.78125 -3.84375 3.234375 -3.484375 3.234375 -2.765625 C 3.234375 -2.421875 3.363281 -2.148438 3.625 -1.953125 C 3.894531 -1.753906 4.265625 -1.65625 4.734375 -1.65625 Z M 4.734375 -1.65625 "/></g></g></g><g fill="#ffffff" fill-opacity="1"><g transform="translate(61.595138, 24.570555)"><g><path d="M 13 -9.328125 C 14.144531 -9.328125 15.054688 -8.988281 15.734375 -8.3125 C 16.410156 -7.632812 16.75 -6.617188 16.75 -5.265625 L 16.75 0 L 14.09375 0 L 14.09375 -4.84375 C 14.09375 -5.570312 13.941406 -6.113281 13.640625 -6.46875 C 13.335938 -6.832031 12.90625 -7.015625 12.34375 -7.015625 C 11.71875 -7.015625 11.222656 -6.8125 10.859375 -6.40625 C 10.492188 -6.007812 10.3125 -5.410156 10.3125 -4.609375 L 10.3125 0 L 7.65625 0 L 7.65625 -4.84375 C 7.65625 -6.289062 7.070312 -7.015625 5.90625 -7.015625 C 5.289062 -7.015625 4.800781 -6.8125 4.4375 -6.40625 C 4.070312 -6.007812 3.890625 -5.410156 3.890625 -4.609375 L 3.890625 0 L 1.234375 0 L 1.234375 -9.1875 L 3.78125 -9.1875 L 3.78125 -8.125 C 4.113281 -8.507812 4.523438 -8.804688 5.015625 -9.015625 C 5.515625 -9.222656 6.0625 -9.328125 6.65625 -9.328125 C 7.3125 -9.328125 7.898438 -9.195312 8.421875 -8.9375 C 8.941406 -8.6875 9.363281 -8.316406 9.6875 -7.828125 C 10.0625 -8.304688 10.535156 -8.675781 11.109375 -8.9375 C 11.679688 -9.195312 12.3125 -9.328125 13 -9.328125 Z M 13 -9.328125 "/></g></g></g><g fill="#ffffff" fill-opacity="1"><g transform="translate(79.506542, 24.570555)"><g><path d="M 13 -9.328125 C 14.144531 -9.328125 15.054688 -8.988281 15.734375 -8.3125 C 16.410156 -7.632812 16.75 -6.617188 16.75 -5.265625 L 16.75 0 L 14.09375 0 L 14.09375 -4.84375 C 14.09375 -5.570312 13.941406 -6.113281 13.640625 -6.46875 C 13.335938 -6.832031 12.90625 -7.015625 12.34375 -7.015625 C 11.71875 -7.015625 11.222656 -6.8125 10.859375 -6.40625 C 10.492188 -6.007812 10.3125 -5.410156 10.3125 -4.609375 L 10.3125 0 L 7.65625 0 L 7.65625 -4.84375 C 7.65625 -6.289062 7.070312 -7.015625 5.90625 -7.015625 C 5.289062 -7.015625 4.800781 -6.8125 4.4375 -6.40625 C 4.070312 -6.007812 3.890625 -5.410156 3.890625 -4.609375 L 3.890625 0 L 1.234375 0 L 1.234375 -9.1875 L 3.78125 -9.1875 L 3.78125 -8.125 C 4.113281 -8.507812 4.523438 -8.804688 5.015625 -9.015625 C 5.515625 -9.222656 6.0625 -9.328125 6.65625 -9.328125 C 7.3125 -9.328125 7.898438 -9.195312 8.421875 -8.9375 C 8.941406 -8.6875 9.363281 -8.316406 9.6875 -7.828125 C 10.0625 -8.304688 10.535156 -8.675781 11.109375 -8.9375 C 11.679688 -9.195312 12.3125 -9.328125 13 -9.328125 Z M 13 -9.328125 "/></g></g></g><g fill="#ffffff" fill-opacity="1"><g transform="translate(97.417945, 24.570555)"><g><path d="M 1.234375 -9.1875 L 3.890625 -9.1875 L 3.890625 0 L 1.234375 0 Z M 2.5625 -10.46875 C 2.070312 -10.46875 1.671875 -10.609375 1.359375 -10.890625 C 1.054688 -11.179688 0.90625 -11.535156 0.90625 -11.953125 C 0.90625 -12.378906 1.054688 -12.734375 1.359375 -13.015625 C 1.671875 -13.296875 2.070312 -13.4375 2.5625 -13.4375 C 3.050781 -13.4375 3.445312 -13.300781 3.75 -13.03125 C 4.0625 -12.757812 4.21875 -12.414062 4.21875 -12 C 4.21875 -11.5625 4.0625 -11.195312 3.75 -10.90625 C 3.445312 -10.613281 3.050781 -10.46875 2.5625 -10.46875 Z M 2.5625 -10.46875 "/></g></g></g></svg>