<svg xmlns="http://www.w3.org/2000/svg" xmlns:xlink="http://www.w3.org/1999/xlink" width="140" zoomAndPan="magnify" viewBox="0 0 104.88 37.5" height="50" preserveAspectRatio="xMidYMid meet" version="1.0"><defs><g/><clipPath id="b550b86747"><path d="M 0.628906 0 L 37.636719 0 L 37.636719 37.007812 L 0.628906 37.007812 Z M 0.628906 0 " clip-rule="nonzero"/></clipPath></defs><g clip-path="url(#b550b86747)"><path fill="#1a064f" d="M 16.914062 0 L 21.355469 0 C 21.886719 0 22.417969 0.0273438 22.949219 0.078125 C 23.480469 0.128906 24.007812 0.207031 24.53125 0.3125 C 25.054688 0.417969 25.570312 0.546875 26.082031 0.699219 C 26.589844 0.855469 27.09375 1.035156 27.585938 1.238281 C 28.078125 1.445312 28.558594 1.671875 29.03125 1.921875 C 29.5 2.175781 29.957031 2.449219 30.402344 2.746094 C 30.84375 3.039062 31.273438 3.359375 31.683594 3.695312 C 32.097656 4.035156 32.492188 4.390625 32.867188 4.769531 C 33.246094 5.144531 33.601562 5.539062 33.941406 5.953125 C 34.28125 6.367188 34.597656 6.792969 34.894531 7.238281 C 35.191406 7.679688 35.464844 8.136719 35.714844 8.605469 C 35.964844 9.078125 36.195312 9.558594 36.398438 10.050781 C 36.601562 10.542969 36.78125 11.046875 36.9375 11.554688 C 37.089844 12.066406 37.21875 12.582031 37.324219 13.105469 C 37.429688 13.628906 37.507812 14.15625 37.558594 14.6875 C 37.609375 15.21875 37.636719 15.75 37.636719 16.28125 L 37.636719 20.722656 C 37.636719 21.257812 37.609375 21.789062 37.558594 22.320312 C 37.507812 22.851562 37.429688 23.378906 37.324219 23.898438 C 37.21875 24.421875 37.089844 24.941406 36.9375 25.449219 C 36.78125 25.960938 36.601562 26.460938 36.398438 26.953125 C 36.195312 27.449219 35.964844 27.929688 35.714844 28.398438 C 35.464844 28.871094 35.191406 29.328125 34.894531 29.769531 C 34.597656 30.214844 34.28125 30.640625 33.941406 31.054688 C 33.601562 31.464844 33.246094 31.859375 32.867188 32.238281 C 32.492188 32.613281 32.097656 32.972656 31.683594 33.308594 C 31.273438 33.648438 30.84375 33.964844 30.402344 34.261719 C 29.957031 34.558594 29.5 34.832031 29.03125 35.082031 C 28.558594 35.335938 28.078125 35.5625 27.585938 35.765625 C 27.09375 35.972656 26.589844 36.152344 26.082031 36.304688 C 25.570312 36.460938 25.054688 36.589844 24.53125 36.695312 C 24.007812 36.796875 23.480469 36.875 22.949219 36.929688 C 22.417969 36.980469 21.886719 37.007812 21.355469 37.007812 L 16.914062 37.007812 C 16.378906 37.007812 15.847656 36.980469 15.316406 36.929688 C 14.785156 36.875 14.261719 36.796875 13.738281 36.695312 C 13.214844 36.589844 12.699219 36.460938 12.1875 36.304688 C 11.675781 36.152344 11.175781 35.972656 10.683594 35.765625 C 10.191406 35.5625 9.707031 35.335938 9.238281 35.082031 C 8.769531 34.832031 8.3125 34.558594 7.867188 34.261719 C 7.425781 33.964844 6.996094 33.648438 6.582031 33.308594 C 6.171875 32.972656 5.777344 32.613281 5.398438 32.238281 C 5.023438 31.859375 4.664062 31.464844 4.328125 31.054688 C 3.988281 30.640625 3.671875 30.214844 3.375 29.769531 C 3.078125 29.328125 2.804688 28.871094 2.554688 28.398438 C 2.300781 27.929688 2.074219 27.449219 1.871094 26.953125 C 1.667969 26.460938 1.488281 25.960938 1.332031 25.449219 C 1.175781 24.941406 1.046875 24.421875 0.945312 23.898438 C 0.839844 23.378906 0.761719 22.851562 0.710938 22.320312 C 0.65625 21.789062 0.628906 21.257812 0.628906 20.722656 L 0.628906 16.28125 C 0.628906 15.75 0.65625 15.21875 0.710938 14.6875 C 0.761719 14.15625 0.839844 13.628906 0.945312 13.105469 C 1.046875 12.582031 1.175781 12.066406 1.332031 11.554688 C 1.488281 11.046875 1.667969 10.542969 1.871094 10.050781 C 2.074219 9.558594 2.300781 9.078125 2.554688 8.605469 C 2.804688 8.136719 3.078125 7.679688 3.375 7.238281 C 3.671875 6.792969 3.988281 6.367188 4.328125 5.953125 C 4.664062 5.539062 5.023438 5.144531 5.398438 4.769531 C 5.777344 4.390625 6.171875 4.035156 6.582031 3.695312 C 6.996094 3.359375 7.425781 3.039062 7.867188 2.746094 C 8.3125 2.449219 8.769531 2.175781 9.238281 1.921875 C 9.707031 1.671875 10.191406 1.445312 10.683594 1.238281 C 11.175781 1.035156 11.675781 0.855469 12.1875 0.699219 C 12.699219 0.546875 13.214844 0.417969 13.738281 0.3125 C 14.261719 0.207031 14.785156 0.128906 15.316406 0.078125 C 15.847656 0.0273438 16.378906 0 16.914062 0 Z M 16.914062 0 " fill-opacity="1" fill-rule="nonzero"/></g><path fill="#ffffff" d="M 10.25 17.421875 L 11.363281 18.070312 L 11.363281 23.269531 L 12.472656 23.921875 L 13.582031 24.570312 L 14.691406 25.222656 L 15.800781 25.871094 L 16.910156 26.523438 L 18.019531 27.171875 L 19.128906 27.824219 L 20.238281 27.171875 L 21.351562 26.523438 L 22.460938 25.871094 L 23.570312 25.222656 L 24.679688 24.570312 L 25.789062 23.921875 L 26.898438 23.269531 L 26.898438 18.070312 L 28.007812 17.421875 L 28.007812 19.773438 C 27.917969 19.832031 27.855469 19.9375 27.855469 20.050781 C 27.855469 20.164062 27.90625 20.253906 27.988281 20.308594 L 27.949219 20.425781 L 27.726562 21.121094 L 28.617188 21.121094 L 28.394531 20.425781 L 28.359375 20.308594 C 28.4375 20.253906 28.488281 20.171875 28.488281 20.050781 C 28.488281 19.925781 28.398438 19.789062 28.273438 19.746094 L 28.273438 17.265625 L 19.402344 12.0625 L 19.671875 11.90625 L 28.550781 17.105469 L 29.125 16.769531 L 30.234375 16.121094 L 29.125 15.46875 L 28.015625 14.820312 L 26.90625 14.167969 L 25.792969 13.519531 L 24.683594 12.871094 L 23.574219 12.21875 L 21.355469 10.921875 L 20.246094 10.269531 L 19.132812 9.621094 L 18.023438 10.273438 L 15.804688 11.570312 L 14.691406 12.222656 L 12.472656 13.519531 L 11.363281 14.171875 L 10.253906 14.820312 L 9.144531 15.472656 L 8.03125 16.121094 L 9.140625 16.769531 Z M 18.023438 15.472656 L 19.132812 14.820312 L 20.242188 15.472656 L 21.355469 16.121094 L 20.242188 16.773438 L 18.023438 18.070312 L 18.023438 19.375 L 19.132812 20.023438 L 20.242188 19.375 L 21.355469 18.722656 L 22.464844 18.070312 L 23.574219 17.421875 L 24.683594 16.769531 L 25.445312 16.324219 L 25.792969 16.121094 L 24.851562 15.570312 L 24.683594 15.472656 L 23.574219 14.820312 L 22.464844 14.171875 L 21.355469 13.519531 L 20.246094 12.871094 L 19.136719 12.21875 L 18.023438 12.871094 L 16.914062 13.519531 L 15.804688 14.171875 L 14.695312 14.820312 L 13.585938 15.472656 L 12.476562 16.121094 L 13.585938 16.773438 L 13.585938 21.972656 L 14.695312 22.621094 L 15.804688 23.273438 L 16.914062 23.921875 L 18.023438 24.574219 L 19.132812 25.222656 L 20.242188 24.574219 L 21.355469 23.921875 L 22.464844 23.273438 L 23.574219 22.621094 L 24.683594 21.972656 L 24.683594 19.371094 L 23.574219 20.023438 L 22.464844 20.671875 L 21.355469 21.324219 L 20.242188 21.972656 L 19.132812 22.625 L 16.914062 21.320312 L 15.804688 20.671875 L 15.804688 16.769531 Z M 18.023438 15.472656 " fill-opacity="1" fill-rule="evenodd"/><g fill="#1a064f" fill-opacity="1"><g transform="translate(40.175711, 24.468984)"><g><path d="M 5.34375 0.203125 C 4.394531 0.203125 3.476562 0.078125 2.59375 -0.171875 C 1.71875 -0.429688 1.015625 -0.765625 0.484375 -1.171875 L 1.421875 -3.265625 C 1.929688 -2.890625 2.535156 -2.585938 3.234375 -2.359375 C 3.941406 -2.128906 4.648438 -2.015625 5.359375 -2.015625 C 6.148438 -2.015625 6.734375 -2.128906 7.109375 -2.359375 C 7.484375 -2.597656 7.671875 -2.910156 7.671875 -3.296875 C 7.671875 -3.578125 7.554688 -3.8125 7.328125 -4 C 7.109375 -4.1875 6.820312 -4.335938 6.46875 -4.453125 C 6.125 -4.566406 5.660156 -4.691406 5.078125 -4.828125 C 4.160156 -5.046875 3.410156 -5.265625 2.828125 -5.484375 C 2.253906 -5.703125 1.757812 -6.046875 1.34375 -6.515625 C 0.925781 -6.992188 0.71875 -7.632812 0.71875 -8.4375 C 0.71875 -9.132812 0.90625 -9.765625 1.28125 -10.328125 C 1.65625 -10.890625 2.21875 -11.332031 2.96875 -11.65625 C 3.726562 -11.988281 4.65625 -12.15625 5.75 -12.15625 C 6.519531 -12.15625 7.265625 -12.0625 7.984375 -11.875 C 8.710938 -11.695312 9.351562 -11.4375 9.90625 -11.09375 L 9.046875 -9 C 7.941406 -9.625 6.835938 -9.9375 5.734375 -9.9375 C 4.960938 -9.9375 4.390625 -9.8125 4.015625 -9.5625 C 3.648438 -9.3125 3.46875 -8.984375 3.46875 -8.578125 C 3.46875 -8.160156 3.679688 -7.851562 4.109375 -7.65625 C 4.535156 -7.457031 5.1875 -7.265625 6.0625 -7.078125 C 6.96875 -6.859375 7.710938 -6.640625 8.296875 -6.421875 C 8.878906 -6.203125 9.378906 -5.859375 9.796875 -5.390625 C 10.210938 -4.929688 10.421875 -4.300781 10.421875 -3.5 C 10.421875 -2.8125 10.226562 -2.1875 9.84375 -1.625 C 9.46875 -1.0625 8.894531 -0.613281 8.125 -0.28125 C 7.363281 0.0390625 6.4375 0.203125 5.34375 0.203125 Z M 5.34375 0.203125 "/></g></g></g><g fill="#1a064f" fill-opacity="1"><g transform="translate(51.065897, 24.468984)"><g><path d="M 4.9375 -9.328125 C 6.363281 -9.328125 7.457031 -8.988281 8.21875 -8.3125 C 8.976562 -7.632812 9.359375 -6.613281 9.359375 -5.25 L 9.359375 0 L 6.859375 0 L 6.859375 -1.140625 C 6.359375 -0.285156 5.425781 0.140625 4.0625 0.140625 C 3.351562 0.140625 2.738281 0.0195312 2.21875 -0.21875 C 1.707031 -0.457031 1.3125 -0.785156 1.03125 -1.203125 C 0.757812 -1.628906 0.625 -2.109375 0.625 -2.640625 C 0.625 -3.492188 0.945312 -4.164062 1.59375 -4.65625 C 2.238281 -5.144531 3.234375 -5.390625 4.578125 -5.390625 L 6.6875 -5.390625 C 6.6875 -5.972656 6.507812 -6.421875 6.15625 -6.734375 C 5.8125 -7.046875 5.285156 -7.203125 4.578125 -7.203125 C 4.085938 -7.203125 3.601562 -7.125 3.125 -6.96875 C 2.65625 -6.820312 2.257812 -6.617188 1.9375 -6.359375 L 0.96875 -8.21875 C 1.46875 -8.570312 2.066406 -8.84375 2.765625 -9.03125 C 3.472656 -9.226562 4.195312 -9.328125 4.9375 -9.328125 Z M 4.734375 -1.65625 C 5.179688 -1.65625 5.582031 -1.757812 5.9375 -1.96875 C 6.289062 -2.175781 6.539062 -2.488281 6.6875 -2.90625 L 6.6875 -3.84375 L 4.875 -3.84375 C 3.78125 -3.84375 3.234375 -3.484375 3.234375 -2.765625 C 3.234375 -2.421875 3.363281 -2.148438 3.625 -1.953125 C 3.894531 -1.753906 4.265625 -1.65625 4.734375 -1.65625 Z M 4.734375 -1.65625 "/></g></g></g><g fill="#1a064f" fill-opacity="1"><g transform="translate(61.597627, 24.468984)"><g><path d="M 13 -9.328125 C 14.144531 -9.328125 15.054688 -8.988281 15.734375 -8.3125 C 16.410156 -7.632812 16.75 -6.617188 16.75 -5.265625 L 16.75 0 L 14.09375 0 L 14.09375 -4.84375 C 14.09375 -5.570312 13.941406 -6.113281 13.640625 -6.46875 C 13.335938 -6.832031 12.90625 -7.015625 12.34375 -7.015625 C 11.71875 -7.015625 11.222656 -6.8125 10.859375 -6.40625 C 10.492188 -6.007812 10.3125 -5.410156 10.3125 -4.609375 L 10.3125 0 L 7.65625 0 L 7.65625 -4.84375 C 7.65625 -6.289062 7.070312 -7.015625 5.90625 -7.015625 C 5.289062 -7.015625 4.800781 -6.8125 4.4375 -6.40625 C 4.070312 -6.007812 3.890625 -5.410156 3.890625 -4.609375 L 3.890625 0 L 1.234375 0 L 1.234375 -9.1875 L 3.78125 -9.1875 L 3.78125 -8.125 C 4.113281 -8.507812 4.523438 -8.804688 5.015625 -9.015625 C 5.515625 -9.222656 6.0625 -9.328125 6.65625 -9.328125 C 7.3125 -9.328125 7.898438 -9.195312 8.421875 -8.9375 C 8.941406 -8.6875 9.363281 -8.316406 9.6875 -7.828125 C 10.0625 -8.304688 10.535156 -8.675781 11.109375 -8.9375 C 11.679688 -9.195312 12.3125 -9.328125 13 -9.328125 Z M 13 -9.328125 "/></g></g></g><g fill="#1a064f" fill-opacity="1"><g transform="translate(79.503285, 24.468984)"><g><path d="M 13 -9.328125 C 14.144531 -9.328125 15.054688 -8.988281 15.734375 -8.3125 C 16.410156 -7.632812 16.75 -6.617188 16.75 -5.265625 L 16.75 0 L 14.09375 0 L 14.09375 -4.84375 C 14.09375 -5.570312 13.941406 -6.113281 13.640625 -6.46875 C 13.335938 -6.832031 12.90625 -7.015625 12.34375 -7.015625 C 11.71875 -7.015625 11.222656 -6.8125 10.859375 -6.40625 C 10.492188 -6.007812 10.3125 -5.410156 10.3125 -4.609375 L 10.3125 0 L 7.65625 0 L 7.65625 -4.84375 C 7.65625 -6.289062 7.070312 -7.015625 5.90625 -7.015625 C 5.289062 -7.015625 4.800781 -6.8125 4.4375 -6.40625 C 4.070312 -6.007812 3.890625 -5.410156 3.890625 -4.609375 L 3.890625 0 L 1.234375 0 L 1.234375 -9.1875 L 3.78125 -9.1875 L 3.78125 -8.125 C 4.113281 -8.507812 4.523438 -8.804688 5.015625 -9.015625 C 5.515625 -9.222656 6.0625 -9.328125 6.65625 -9.328125 C 7.3125 -9.328125 7.898438 -9.195312 8.421875 -8.9375 C 8.941406 -8.6875 9.363281 -8.316406 9.6875 -7.828125 C 10.0625 -8.304688 10.535156 -8.675781 11.109375 -8.9375 C 11.679688 -9.195312 12.3125 -9.328125 13 -9.328125 Z M 13 -9.328125 "/></g></g></g><g fill="#1a064f" fill-opacity="1"><g transform="translate(97.408944, 24.468984)"><g><path d="M 1.234375 -9.1875 L 3.890625 -9.1875 L 3.890625 0 L 1.234375 0 Z M 2.5625 -10.46875 C 2.070312 -10.46875 1.671875 -10.609375 1.359375 -10.890625 C 1.054688 -11.179688 0.90625 -11.535156 0.90625 -11.953125 C 0.90625 -12.378906 1.054688 -12.734375 1.359375 -13.015625 C 1.671875 -13.296875 2.070312 -13.4375 2.5625 -13.4375 C 3.050781 -13.4375 3.445312 -13.300781 3.75 -13.03125 C 4.0625 -12.757812 4.21875 -12.414062 4.21875 -12 C 4.21875 -11.5625 4.0625 -11.195312 3.75 -10.90625 C 3.445312 -10.613281 3.050781 -10.46875 2.5625 -10.46875 Z M 2.5625 -10.46875 "/></g></g></g></svg>